<svg width="21" height="30" viewBox="0 0 21 30" fill="none" xmlns="http://www.w3.org/2000/svg"><path fill-rule="evenodd" clip-rule="evenodd" d="M12.8492 10.3958C13.7275 10.9091 14.4352 11.6739 14.883 12.5935C15.3308 13.5131 15.4984 14.5461 15.3648 15.5619C15.2311 16.5776 14.8021 17.5306 14.132 18.3001C13.4619 19.0696 12.5809 19.6212 11.6003 19.8851C10.6198 20.1489 9.58374 20.1132 8.62331 19.7824C7.66288 19.4515 6.82117 18.8405 6.20467 18.0266C5.58816 17.2127 5.22455 16.2324 5.15983 15.2098C5.09511 14.1872 5.33218 13.1681 5.84106 12.2816C6.52408 11.0945 7.64538 10.2293 8.95912 9.87585C10.2728 9.52236 11.6718 9.70935 12.8492 10.3958ZM13.6495 9.01118C12.4994 8.34013 11.1781 8.02859 9.85271 8.11597C8.52728 8.20334 7.25729 8.6857 6.20338 9.50204C5.14947 10.3184 4.359 11.432 3.93195 12.7021C3.5049 13.9721 3.46047 15.3415 3.80426 16.6371C4.14806 17.9327 4.86464 19.0962 5.86337 19.9804C6.86209 20.8647 8.09809 21.4299 9.41501 21.6048C10.7319 21.7796 12.0706 21.556 13.2617 20.9624C14.4528 20.3689 15.4428 19.4319 16.1065 18.2701C16.9959 16.7131 17.2367 14.8632 16.776 13.127C16.3152 11.3909 15.1907 9.91045 13.6495 9.01118Z" fill="white"></path><path fill-rule="evenodd" clip-rule="evenodd" d="M12.1528 27.7068C10.2659 27.9868 8.3409 27.8388 6.5177 27.2736C4.6945 26.7084 3.01889 25.7401 1.61263 24.4391C1.52032 24.3539 1.41228 24.2878 1.29469 24.2447C1.17709 24.2016 1.05224 24.1823 0.927266 24.188C0.80229 24.1936 0.679636 24.224 0.566307 24.2775C0.452978 24.331 0.351192 24.4065 0.266762 24.4997C0.182333 24.593 0.116912 24.7021 0.0742353 24.8208C0.0315587 24.9396 0.0124621 25.0656 0.0180359 25.1918C0.0236096 25.318 0.0537445 25.4419 0.10672 25.5563C0.159696 25.6708 0.234474 25.7736 0.326786 25.8588C1.94118 27.3535 3.86517 28.4662 5.95885 29.1158C8.05253 29.7654 10.2633 29.9356 12.4303 29.6141C12.6551 29.5539 12.8503 29.4124 12.9787 29.2166C13.1071 29.0207 13.1599 28.784 13.127 28.5515C13.0941 28.3189 12.9778 28.1067 12.8002 27.9549C12.6226 27.8032 12.3961 27.7226 12.1635 27.7284L12.1528 27.7068Z" fill="white"></path><path fill-rule="evenodd" clip-rule="evenodd" d="M8.42083 2.05561C10.3073 1.77583 12.2319 1.92393 14.0546 2.48916C15.8773 3.05439 17.5525 4.02255 18.9584 5.3233C19.0501 5.40873 19.1577 5.47507 19.2749 5.51854C19.392 5.562 19.5165 5.58173 19.6413 5.5766C19.766 5.57147 19.8885 5.54158 20.0018 5.48865C20.1151 5.43571 20.2169 5.36076 20.3016 5.26807C20.3862 5.17539 20.4519 5.06678 20.4949 4.94845C20.5379 4.83013 20.5575 4.7044 20.5524 4.57845C20.5473 4.4525 20.5177 4.32879 20.4653 4.21439C20.4129 4.09999 20.3387 3.99713 20.2469 3.9117C18.6321 2.41673 16.7076 1.30418 14.6134 0.655025C12.5192 0.00587127 10.308 -0.163543 8.14071 0.159116C8.00666 0.162446 7.87482 0.194406 7.75387 0.252893C7.63293 0.311381 7.52562 0.395069 7.43901 0.498451C7.3524 0.601833 7.28845 0.722565 7.25138 0.8527C7.2143 0.982835 7.20494 1.11942 7.2239 1.25348C7.24287 1.38753 7.28973 1.51601 7.3614 1.63045C7.43308 1.7449 7.52795 1.84272 7.63976 1.91748C7.75157 1.99224 7.87779 2.04224 8.01011 2.06419C8.14244 2.08614 8.27787 2.07954 8.40749 2.04484L8.42083 2.05561Z" fill="white"></path><path fill-rule="evenodd" clip-rule="evenodd" d="M8.43681 23.0625C6.50249 22.6188 4.7895 21.4903 3.60815 19.8812C2.42679 18.2722 1.85519 16.2891 1.99691 14.2912C2.02182 14.1778 2.02223 14.0603 1.99811 13.9467C1.97398 13.8331 1.92589 13.7261 1.85712 13.633C1.78834 13.5399 1.70049 13.4628 1.59955 13.4071C1.49862 13.3513 1.38697 13.3182 1.27222 13.31C1.15747 13.3018 1.04232 13.3186 0.934599 13.3594C0.826884 13.4002 0.729141 13.464 0.648033 13.5464C0.566925 13.6287 0.504358 13.7278 0.464595 13.8368C0.424832 13.9458 0.408809 14.0622 0.417616 14.178C0.25097 16.5568 0.932584 18.9173 2.33924 20.8328C3.7459 22.7483 5.78479 24.0924 8.08733 24.6222C8.19455 24.664 8.30943 24.682 8.42414 24.6749C8.53885 24.6679 8.65072 24.6359 8.75212 24.5813C8.85352 24.5267 8.94209 24.4507 9.01179 24.3584C9.08149 24.2661 9.1307 24.1598 9.15606 24.0466C9.18142 23.9334 9.18234 23.816 9.15876 23.7024C9.13518 23.5889 9.08766 23.4817 9.01941 23.3884C8.95117 23.295 8.86381 23.2175 8.76328 23.1613C8.66274 23.1051 8.5514 23.0714 8.43681 23.0625Z" fill="white"></path><path fill-rule="evenodd" clip-rule="evenodd" d="M20.1535 15.5871C20.3247 13.2078 19.6452 10.8454 18.2383 8.92894C16.8315 7.01251 14.7906 5.66916 12.4864 5.14287C12.296 5.12932 12.107 5.18499 11.9536 5.29983C11.8002 5.41467 11.6925 5.58112 11.65 5.7691C11.6075 5.95709 11.6329 6.15424 11.7217 6.32493C11.8105 6.49563 11.9569 6.62864 12.1343 6.69993C14.0686 7.14358 15.7816 8.27214 16.963 9.88118C18.1443 11.4902 18.7159 13.4733 18.5742 15.4712C18.5884 15.6646 18.671 15.8463 18.8069 15.9833C18.9427 16.1203 19.1228 16.2034 19.3143 16.2174C19.5058 16.2314 19.6959 16.1755 19.85 16.0598C20.004 15.9441 20.1117 15.7763 20.1535 15.5871Z" fill="white"></path></svg>
